# xmcd CD database file
#
# Track frame offsets:
#	150
#	19417
#	37967
#	56822
#
# Disc length: 1040 seconds
#
# Revision: 0
# Processed by: cddbd v1.5PL3 Copyright (c) Steve Scherf et al.
# Submitted via: CDex 1.51
#
DISCID=2f040e04
DTITLE=片瀬那奈 - Babe
DYEAR=2002
DGENRE=JPop
TTITLE0=Babe
TTITLE1=MY LIFE
TTITLE2=for you
TTITLE3=Babe -Huge remix-
EXTD=YEAR: 2002
EXTT0=
EXTT1=
EXTT2=
EXTT3=
PLAYORDER=
